<svg width="49" height="48" viewBox="0 0 49 48" fill="none" xmlns="http://www.w3.org/2000/svg">
<path d="M12.5 38H18.5V28C18.5 27.4333 18.692 26.9587 19.076 26.576C19.46 26.1933 19.9347 26.0013 20.5 26H28.5C29.0667 26 29.542 26.192 29.926 26.576C30.31 26.96 30.5013 27.4347 30.5 28V38H36.5V20L24.5 11L12.5 20V38ZM8.5 38V20C8.5 19.3667 8.642 18.7667 8.926 18.2C9.21 17.6333 9.60133 17.1667 10.1 16.8L22.1 7.8C22.8 7.26667 23.6 7 24.5 7C25.4 7 26.2 7.26667 26.9 7.8L38.9 16.8C39.4 17.1667 39.792 17.6333 40.076 18.2C40.36 18.7667 40.5013 19.3667 40.5 20V38C40.5 39.1 40.108 40.042 39.324 40.826C38.54 41.61 37.5987 42.0013 36.5 42H28.5C27.9333 42 27.4587 41.808 27.076 41.424C26.6933 41.04 26.5013 40.5653 26.5 40V30H22.5V40C22.5 40.5667 22.308 41.042 21.924 41.426C21.54 41.81 21.0653 42.0013 20.5 42H12.5C11.4 42 10.4587 41.6087 9.676 40.826C8.89333 40.0433 8.50133 39.1013 8.5 38Z" fill="#F9A000"/>
</svg>
