<svg width="49" height="49" viewBox="0 0 49 49" fill="none" xmlns="http://www.w3.org/2000/svg">
<path d="M40.8929 17.6859C42.0536 18.2474 43.0982 18.9365 44.0268 19.7531C44.9554 20.5698 45.7589 21.4885 46.4375 22.5094C47.1161 23.5302 47.625 24.6191 47.9643 25.776C48.3036 26.933 48.4821 28.141 48.5 29.4H45.0714C45.0714 28.0559 44.8036 26.7884 44.2679 25.5974C43.7321 24.4064 42.9911 23.3686 42.0446 22.4839C41.0982 21.5991 40.0089 20.9016 38.7768 20.3911C37.5446 19.8807 36.2143 19.617 34.7857 19.6C33.375 19.6 32.0446 19.8552 30.7946 20.3656C29.5446 20.876 28.4554 21.5821 27.5268 22.4839C26.5982 23.3856 25.8661 24.4234 25.3304 25.5974C24.7946 26.7714 24.5179 28.0389 24.5 29.4C24.5 30.9483 24.1339 32.42 23.4018 33.8151C22.6696 35.2102 21.6429 36.3672 20.3214 37.2859C21.4821 37.8474 22.5268 38.5365 23.4554 39.3531C24.3839 40.1698 25.1875 41.0885 25.8661 42.1094C26.5446 43.1302 27.0536 44.2191 27.3929 45.376C27.7321 46.533 27.9107 47.741 27.9286 49H24.5C24.5 47.6559 24.2321 46.3884 23.6964 45.1974C23.1607 44.0064 22.4196 42.9686 21.4732 42.0839C20.5268 41.1991 19.4375 40.5016 18.2054 39.9911C16.9732 39.4807 15.6429 39.217 14.2143 39.2C12.8036 39.2 11.4732 39.4552 10.2232 39.9656C8.97321 40.476 7.88393 41.1821 6.95536 42.0839C6.02679 42.9856 5.29464 44.0234 4.75893 45.1974C4.22321 46.3714 3.94643 47.6389 3.92857 49H0.5C0.5 47.758 0.678571 46.5585 1.03571 45.4016C1.39286 44.2446 1.90179 43.1557 2.5625 42.1349C3.22321 41.1141 4.01786 40.1953 4.94643 39.3786C5.875 38.562 6.92857 37.8644 8.10714 37.2859C6.80357 36.3672 5.78571 35.2102 5.05357 33.8151C4.32143 32.42 3.94643 30.9483 3.92857 29.4C3.92857 28.0559 4.19643 26.7884 4.73214 25.5974C5.26786 24.4064 6.00893 23.3686 6.95536 22.4839C7.90179 21.5991 8.99107 20.9016 10.2232 20.3911C11.4554 19.8807 12.7857 19.617 14.2143 19.6C15.8393 19.6 17.3839 19.9488 18.8482 20.6464C20.3125 21.3439 21.5268 22.3222 22.4911 23.5812C23.1696 22.3052 24.0357 21.1653 25.0893 20.1615C26.1429 19.1576 27.3393 18.3325 28.6786 17.6859C27.375 16.7672 26.3571 15.6102 25.625 14.2151C24.8929 12.82 24.5179 11.3483 24.5 9.8C24.5 8.4559 24.7679 7.18837 25.3036 5.9974C25.8393 4.80642 26.5804 3.76858 27.5268 2.88385C28.4732 1.99913 29.5625 1.30156 30.7946 0.791146C32.0268 0.280729 33.3571 0.0170139 34.7857 0C36.1964 0 37.5268 0.255208 38.7768 0.765625C40.0268 1.27604 41.1161 1.98212 42.0446 2.88385C42.9732 3.78559 43.7054 4.82344 44.2411 5.9974C44.7768 7.17135 45.0536 8.43889 45.0714 9.8C45.0714 11.3483 44.7054 12.82 43.9732 14.2151C43.2411 15.6102 42.2143 16.7672 40.8929 17.6859ZM14.2143 35.9333C15.1429 35.9333 16.0268 35.7632 16.8661 35.4229C17.7054 35.0826 18.4286 34.6148 19.0357 34.0193C19.6429 33.4238 20.1339 32.7347 20.5089 31.9521C20.8839 31.1694 21.0714 30.3188 21.0714 29.4C21.0714 28.5153 20.8929 27.6731 20.5357 26.8734C20.1786 26.0738 19.6875 25.3847 19.0625 24.8062C18.4375 24.2278 17.7054 23.7599 16.8661 23.4026C16.0268 23.0453 15.1429 22.8667 14.2143 22.8667C13.2679 22.8667 12.3839 23.0368 11.5625 23.3771C10.7411 23.7174 10.0179 24.1852 9.39286 24.7807C8.76786 25.3762 8.27679 26.0738 7.91964 26.8734C7.5625 27.6731 7.375 28.5153 7.35714 29.4C7.35714 30.3017 7.53571 31.1439 7.89286 31.9266C8.25 32.7092 8.74107 33.3983 9.36607 33.9938C9.99107 34.5892 10.7143 35.0571 11.5357 35.3974C12.3571 35.7377 13.25 35.9163 14.2143 35.9333ZM27.9286 9.8C27.9286 10.7017 28.1071 11.5439 28.4643 12.3266C28.8214 13.1092 29.3125 13.7983 29.9375 14.3938C30.5625 14.9892 31.2857 15.4571 32.1071 15.7974C32.9286 16.1377 33.8214 16.3163 34.7857 16.3333C35.7143 16.3333 36.5982 16.1632 37.4375 15.8229C38.2768 15.4826 39 15.0148 39.6071 14.4193C40.2143 13.8238 40.7054 13.1347 41.0804 12.3521C41.4554 11.5694 41.6429 10.7188 41.6429 9.8C41.6429 8.91528 41.4643 8.07309 41.1071 7.27344C40.75 6.47378 40.2589 5.78472 39.6339 5.20625C39.0089 4.62778 38.2768 4.1599 37.4375 3.8026C36.5982 3.44531 35.7143 3.26667 34.7857 3.26667C33.8393 3.26667 32.9554 3.43681 32.1339 3.77708C31.3125 4.11736 30.5893 4.58524 29.9643 5.18073C29.3393 5.77622 28.8482 6.47378 28.4911 7.27344C28.1339 8.07309 27.9464 8.91528 27.9286 9.8Z" fill="#F9A000"/>
</svg>
