<svg width="34" height="38" viewBox="0 0 34 38" fill="none" xmlns="http://www.w3.org/2000/svg">
<path d="M33 20.7975C33 29.796 26 34.2952 17.68 36.9048C17.2443 37.0376 16.7711 37.0313 16.34 36.8868C8 34.2952 1 29.796 1 20.7975V8.1996C1 7.72229 1.21071 7.26453 1.58579 6.92702C1.96086 6.58952 2.46957 6.3999 3 6.3999C7 6.3999 12 4.24027 15.48 1.50472C15.9037 1.17898 16.4427 1 17 1C17.5573 1 18.0963 1.17898 18.52 1.50472C22.02 4.25826 27 6.3999 31 6.3999C31.5304 6.3999 32.0391 6.58952 32.4142 6.92702C32.7893 7.26453 33 7.72229 33 8.1996V20.7975Z" stroke="#F9A000" stroke-width="2" stroke-linecap="round" stroke-linejoin="round"/>
<path d="M11 18.9981L15 22.5975L23 15.3987" stroke="#F9A000" stroke-width="2" stroke-linecap="round" stroke-linejoin="round"/>
</svg>
