<svg width="23" height="23" viewBox="0 0 23 23" fill="none" xmlns="http://www.w3.org/2000/svg">
<path d="M22.2244 3.83336H19.9253C19.722 3.83336 19.5271 3.91413 19.3834 4.05791C19.2397 4.20169 19.1589 4.39669 19.1589 4.60002C19.1589 4.80336 19.2397 4.99836 19.3834 5.14214C19.5271 5.28592 19.722 5.36669 19.9253 5.36669H20.9905L17.9251 11.569C17.7049 12.027 17.3603 12.4137 16.9306 12.6849C16.501 12.9561 16.0037 13.1007 15.4957 13.1023H6.13086V3.38869C6.13568 2.93936 6.05071 2.49359 5.88094 2.07756C5.71117 1.66153 5.46003 1.28362 5.14226 0.96603C4.49953 0.342913 3.63857 -0.00381463 2.74356 3.16617e-05H0.766357C0.563107 3.16617e-05 0.368181 0.0808051 0.224461 0.224583C0.0807409 0.36836 0 0.563365 0 0.766697C0 0.970029 0.0807409 1.16503 0.224461 1.30881C0.368181 1.45259 0.563107 1.53336 0.766357 1.53336H2.75122C3.23856 1.53336 3.70744 1.71989 4.06169 2.0547C4.23534 2.23015 4.37223 2.43852 4.46435 2.66759C4.55647 2.89666 4.60195 3.14181 4.59814 3.38869V13.731C4.59526 13.7693 4.59526 13.8077 4.59814 13.846C4.59814 14.8505 4.997 15.8138 5.70698 16.5241C6.41695 17.2343 7.37989 17.6333 8.38395 17.6333H17.6262C17.8295 17.6333 18.0244 17.5526 18.1681 17.4088C18.3118 17.265 18.3926 17.07 18.3926 16.8667C18.3926 16.6633 18.3118 16.4683 18.1681 16.3246C18.0244 16.1808 17.8295 16.1 17.6262 16.1H8.38395C7.92246 16.0988 7.47256 15.9554 7.09546 15.6892C6.71836 15.4231 6.43239 15.0472 6.27646 14.6127H15.4727C16.268 14.6204 17.0494 14.4036 17.7271 13.9873C18.4049 13.571 18.9516 12.972 19.3045 12.259L22.9141 4.95269C22.975 4.83513 23.0044 4.70379 22.9995 4.57148C22.9946 4.43916 22.9555 4.31038 22.886 4.19766C22.8166 4.08495 22.7191 3.99215 22.6032 3.92831C22.4872 3.86447 22.3567 3.83175 22.2244 3.83336ZM6.89721 18.4C6.4425 18.4 5.998 18.5349 5.61992 18.7876C5.24184 19.0403 4.94716 19.3996 4.77315 19.8198C4.59914 20.2401 4.55361 20.7026 4.64232 21.1487C4.73103 21.5949 4.94999 22.0047 5.27152 22.3263C5.59306 22.648 6.00271 22.8671 6.44869 22.9558C6.89466 23.0445 7.35693 22.999 7.77703 22.8249C8.19713 22.6508 8.5562 22.356 8.80882 21.9778C9.06145 21.5996 9.19628 21.1549 9.19629 20.7C9.19628 20.09 8.95406 19.505 8.5229 19.0737C8.09174 18.6423 7.50697 18.4 6.89721 18.4ZM6.89721 21.4667C6.74564 21.4667 6.59748 21.4217 6.47145 21.3375C6.34542 21.2532 6.2472 21.1335 6.18919 20.9934C6.13119 20.8533 6.11601 20.6992 6.14558 20.5504C6.17515 20.4017 6.24814 20.2651 6.35532 20.1579C6.46249 20.0507 6.59905 19.9776 6.7477 19.9481C6.89636 19.9185 7.05045 19.9337 7.19049 19.9917C7.33052 20.0497 7.45021 20.148 7.53442 20.2741C7.61862 20.4001 7.66357 20.5484 7.66357 20.7C7.66357 20.9033 7.58283 21.0983 7.43911 21.2421C7.29539 21.3859 7.10046 21.4667 6.89721 21.4667ZM15.3271 18.4C14.8724 18.4 14.4279 18.5349 14.0498 18.7876C13.6718 19.0403 13.3771 19.3996 13.2031 19.8198C13.0291 20.2401 12.9835 20.7026 13.0722 21.1487C13.161 21.5949 13.3799 22.0047 13.7015 22.3263C14.023 22.648 14.4326 22.8671 14.8786 22.9558C15.3246 23.0445 15.7869 22.999 16.207 22.8249C16.6271 22.6508 16.9861 22.356 17.2388 21.9778C17.4914 21.5996 17.6262 21.1549 17.6262 20.7C17.6262 20.09 17.384 19.505 16.9528 19.0737C16.5217 18.6423 15.9369 18.4 15.3271 18.4ZM15.3271 21.4667C15.1756 21.4667 15.0274 21.4217 14.9014 21.3375C14.7753 21.2532 14.6771 21.1335 14.6191 20.9934C14.5611 20.8533 14.5459 20.6992 14.5755 20.5504C14.6051 20.4017 14.6781 20.2651 14.7852 20.1579C14.8924 20.0507 15.029 19.9776 15.1776 19.9481C15.3263 19.9185 15.4804 19.9337 15.6204 19.9917C15.7604 20.0497 15.8801 20.148 15.9643 20.2741C16.0486 20.4001 16.0935 20.5484 16.0935 20.7C16.0935 20.9033 16.0128 21.0983 15.869 21.2421C15.7253 21.3859 15.5304 21.4667 15.3271 21.4667Z" fill="white"/>
<path d="M12.2617 3.8335C12.0585 3.8335 11.8635 3.91427 11.7198 4.05805C11.5761 4.20183 11.4954 4.39683 11.4954 4.60016V6.90016H9.19629C8.99304 6.90016 8.79811 6.98093 8.65439 7.12471C8.51067 7.26849 8.42993 7.46349 8.42993 7.66682C8.42993 7.87016 8.51067 8.06516 8.65439 8.20894C8.79811 8.35272 8.99304 8.43349 9.19629 8.43349H11.4954V10.7335C11.4954 10.9368 11.5761 11.1318 11.7198 11.2756C11.8635 11.4194 12.0585 11.5002 12.2617 11.5002C12.465 11.5002 12.6599 11.4194 12.8036 11.2756C12.9473 11.1318 13.0281 10.9368 13.0281 10.7335V8.43349H15.3271C15.5304 8.43349 15.7253 8.35272 15.869 8.20894C16.0128 8.06516 16.0935 7.87016 16.0935 7.66682C16.0935 7.46349 16.0128 7.26849 15.869 7.12471C15.7253 6.98093 15.5304 6.90016 15.3271 6.90016H13.0281V4.60016C13.0281 4.39683 12.9473 4.20183 12.8036 4.05805C12.6599 3.91427 12.465 3.8335 12.2617 3.8335Z" fill="white"/>
</svg>
