<svg width="16" height="17" viewBox="0 0 16 17" fill="none" xmlns="http://www.w3.org/2000/svg">
<path d="M14.3151 1.76701H3.41127C3.18796 1.76701 2.97379 1.67397 2.81589 1.50838C2.65798 1.34278 2.56927 1.11818 2.56927 0.883991C2.56927 0.649801 2.65798 0.425203 2.81589 0.259606C2.97379 0.0940084 3.18796 0.000976562 3.41127 0.000976562H15.1571C15.3804 0.000976562 15.5946 0.0940084 15.7525 0.259606C15.9104 0.425203 15.9991 0.649801 15.9991 0.883991V13.2462C15.9991 13.4804 15.9104 13.705 15.7525 13.8706C15.5946 14.0362 15.3804 14.1292 15.1571 14.1292C14.9338 14.1292 14.7196 14.0362 14.5617 13.8706C14.4038 13.705 14.3151 13.4804 14.3151 13.2462V1.76701Z" fill="white"/>
<path d="M14.5608 0.258956C14.7189 0.0931489 14.9334 0 15.1569 0C15.3805 0 15.595 0.0931489 15.7531 0.258956C15.9112 0.424762 16 0.649644 16 0.88413C16 1.11862 15.9112 1.3435 15.7531 1.5093L1.43919 16.5206C1.3609 16.6027 1.26797 16.6678 1.16568 16.7122C1.0634 16.7566 0.953769 16.7795 0.843057 16.7795C0.732345 16.7795 0.622717 16.7566 0.520433 16.7122C0.418149 16.6678 0.325211 16.6027 0.246925 16.5206C0.16864 16.4385 0.106542 16.341 0.064174 16.2337C0.0218064 16.1265 0 16.0115 0 15.8954C0 15.7793 0.0218064 15.6643 0.064174 15.557C0.106542 15.4498 0.16864 15.3523 0.246925 15.2702L14.5608 0.258956Z" fill="white"/>
</svg>
