<svg width="25" height="19" viewBox="0 0 25 19" fill="none" xmlns="http://www.w3.org/2000/svg">
<path d="M24.9 0.981192C24.7732 0.594493 24.5306 0.287196 24.2252 0.126605C24.075 0.045513 23.9137 0.00250044 23.7504 0H17.5022C17.1707 0 16.8529 0.166735 16.6185 0.463524C16.3842 0.760313 16.2525 1.16285 16.2525 1.58257C16.2525 2.00229 16.3842 2.40482 16.6185 2.70161C16.8529 2.9984 17.1707 3.16514 17.5022 3.16514H20.7387L13.7533 12.0117L9.64195 6.78922C9.52578 6.64089 9.38757 6.52315 9.23529 6.44281C9.08301 6.36246 8.91968 6.3211 8.75471 6.3211C8.58974 6.3211 8.42641 6.36246 8.27413 6.44281C8.12185 6.52315 7.98364 6.64089 7.86747 6.78922L0.369641 16.2846C0.252514 16.4318 0.159548 16.6068 0.0961058 16.7996C0.0326633 16.9925 0 17.1993 0 17.4083C0 17.6172 0.0326633 17.824 0.0961058 18.0169C0.159548 18.2097 0.252514 18.3848 0.369641 18.5319C0.485811 18.6802 0.624022 18.7979 0.776302 18.8783C0.928582 18.9586 1.09192 19 1.25688 19C1.42185 19 1.58519 18.9586 1.73746 18.8783C1.88974 18.7979 2.02796 18.6802 2.14413 18.5319L8.75471 10.1443L12.866 15.3667C12.9822 15.5151 13.1204 15.6328 13.2727 15.7132C13.425 15.7935 13.5883 15.8349 13.7533 15.8349C13.9182 15.8349 14.0816 15.7935 14.2338 15.7132C14.3861 15.6328 14.5243 15.5151 14.6405 15.3667L22.5007 5.39656V9.49541C22.5007 9.91514 22.6324 10.3177 22.8667 10.6145C23.1011 10.9112 23.4189 11.078 23.7504 11.078C24.0818 11.078 24.3996 10.9112 24.634 10.6145C24.8683 10.3177 25 9.91514 25 9.49541V1.58257C24.998 1.37576 24.9641 1.17145 24.9 0.981192Z" fill="white"/>
</svg>
