<svg width="18" height="24" viewBox="0 0 18 24" fill="none" xmlns="http://www.w3.org/2000/svg">
<path d="M17 9.4C17 16.225 9 22 9 22C9 22 1 16.225 1 9.4C1 7.17218 1.84285 5.03561 3.34315 3.4603C4.84344 1.885 6.87827 1 9 1C11.1217 1 13.1566 1.885 14.6569 3.4603C16.1571 5.03561 17 7.17218 17 9.4Z" stroke="white" stroke-width="2"/>
<path d="M12 9.4C12 10.2354 11.6839 11.0366 11.1213 11.6274C10.5587 12.2181 9.79565 12.55 9 12.55C8.20435 12.55 7.44129 12.2181 6.87868 11.6274C6.31607 11.0366 6 10.2354 6 9.4C6 8.56457 6.31607 7.76335 6.87868 7.17261C7.44129 6.58187 8.20435 6.25 9 6.25C9.79565 6.25 10.5587 6.58187 11.1213 7.17261C11.6839 7.76335 12 8.56457 12 9.4Z" stroke="white" stroke-width="2"/>
</svg>
