<svg width="16" height="17" viewBox="0 0 16 17" fill="none" xmlns="http://www.w3.org/2000/svg">
<path d="M3.5 7.34523C5.43 7.34523 7 5.69874 7 3.67471C7 1.65068 5.43 0.00419482 3.5 0.00419482C1.57 0.00419482 0 1.65068 0 3.67471C0 5.69874 1.57 7.34523 3.5 7.34523ZM3.5 2.10163C4.33 2.10163 5 2.80428 5 3.67471C5 4.54515 4.33 5.24779 3.5 5.24779C2.67 5.24779 2 4.54515 2 3.67471C2 2.80428 2.67 2.10163 3.5 2.10163ZM0.00199986 15.2977L14.59 0L16.004 1.48289L1.417 16.7806L0.00199986 15.2977ZM12.5 9.44267C10.57 9.44267 9 11.0892 9 13.1132C9 15.1372 10.57 16.7837 12.5 16.7837C14.43 16.7837 16 15.1372 16 13.1132C16 11.0892 14.43 9.44267 12.5 9.44267ZM12.5 14.6863C11.67 14.6863 11 13.9836 11 13.1132C11 12.2428 11.67 11.5401 12.5 11.5401C13.33 11.5401 14 12.2428 14 13.1132C14 13.9836 13.33 14.6863 12.5 14.6863Z" fill="white"/>
</svg>
