<svg width="38" height="38" viewBox="0 0 38 38" fill="none" xmlns="http://www.w3.org/2000/svg">
<circle cx="19" cy="19" r="19" fill="#F0ECE7"/>
<path fill-rule="evenodd" clip-rule="evenodd" d="M19.0044 9.10651L18.995 9.10838L18.9347 9.14111L18.9177 9.14485L18.9058 9.14111L18.8454 9.10838C18.8364 9.10526 18.8296 9.10682 18.825 9.11305L18.8216 9.1224L18.8072 9.52264L18.8114 9.54134L18.8199 9.5535L18.9083 9.6227L18.9211 9.62644L18.9313 9.6227L19.0197 9.5535L19.0299 9.53854L19.0333 9.52264L19.0188 9.12334C19.0166 9.11336 19.0118 9.10775 19.0044 9.10651ZM19.2296 9.00084L19.2186 9.00271L19.0613 9.08967L19.0528 9.09903L19.0503 9.10931L19.0656 9.51142L19.0698 9.52264L19.0766 9.52919L19.2475 9.61615C19.2583 9.61927 19.2665 9.61678 19.2721 9.60867L19.2755 9.59558L19.2466 9.02141C19.2438 9.01019 19.2381 9.00333 19.2296 9.00084ZM18.6219 9.00271C18.6181 9.00021 18.6137 8.9994 18.6094 9.00045C18.6051 9.00149 18.6014 9.00431 18.5989 9.00832L18.5938 9.02141L18.5649 9.59558C18.5655 9.6068 18.5703 9.61428 18.5794 9.61802L18.5921 9.61615L18.763 9.52919L18.7715 9.52171L18.7749 9.51142L18.7893 9.10931L18.7868 9.09809L18.7783 9.08874L18.6219 9.00271Z" fill="#946B28"/>
<path fill-rule="evenodd" clip-rule="evenodd" d="M17.7035 11.6711C17.9127 11.4871 18.1692 11.3802 18.4366 11.3656C18.7041 11.351 18.9689 11.4294 19.1936 11.5897L19.2965 11.6711L22.9617 14.8973C23.1405 15.0545 23.2886 15.2499 23.3971 15.4716C23.5056 15.6934 23.5723 15.937 23.5932 16.1878L23.6 16.357V18.7136H25.3C25.7289 18.7134 26.142 18.8916 26.4565 19.2124C26.771 19.5333 26.9636 19.973 26.9958 20.4435L27 20.5838V27.9714C27.0001 28.2248 26.9152 28.4694 26.7614 28.6582C26.6077 28.847 26.396 28.9667 26.167 28.9944L26.065 29H10.935C10.7046 29.0001 10.4823 28.9067 10.3107 28.7375C10.139 28.5684 10.0302 28.3355 10.0051 28.0836L10 27.9714V20.5838C9.99986 20.112 10.1618 19.6575 10.4535 19.3115C10.7451 18.9655 11.1448 18.7536 11.5725 18.7182L11.7 18.7136H13.4V16.357C13.4 16.1052 13.4462 15.8559 13.5359 15.6242C13.6256 15.3925 13.7569 15.1831 13.9219 15.0086L14.0384 14.8964L17.7035 11.6711ZM18.5 13.3646L15.1 16.357V27.1297H21.9V16.357L18.5 13.3646ZM25.3 20.5838H23.6V27.1297H25.3V20.5838ZM13.4 20.5838H11.7V27.1297H13.4V20.5838ZM18.5 16.8433C18.8349 16.8433 19.1665 16.9159 19.4758 17.0568C19.7852 17.1978 20.0663 17.4045 20.3031 17.665C20.5399 17.9255 20.7277 18.2347 20.8559 18.5751C20.984 18.9155 21.05 19.2803 21.05 19.6487C21.05 20.0171 20.984 20.3819 20.8559 20.7223C20.7277 21.0626 20.5399 21.3719 20.3031 21.6324C20.0663 21.8929 19.7852 22.0995 19.4758 22.2405C19.1665 22.3815 18.8349 22.4541 18.5 22.4541C17.8237 22.4541 17.1751 22.1585 16.6969 21.6324C16.2187 21.1063 15.95 20.3927 15.95 19.6487C15.95 18.9047 16.2187 18.1911 16.6969 17.665C17.1751 17.1389 17.8237 16.8433 18.5 16.8433ZM18.5 18.7136C18.2746 18.7136 18.0584 18.8121 17.899 18.9875C17.7396 19.1628 17.65 19.4007 17.65 19.6487C17.65 19.8967 17.7396 20.1346 17.899 20.3099C18.0584 20.4853 18.2746 20.5838 18.5 20.5838C18.7254 20.5838 18.9416 20.4853 19.101 20.3099C19.2604 20.1346 19.35 19.8967 19.35 19.6487C19.35 19.4007 19.2604 19.1628 19.101 18.9875C18.9416 18.8121 18.7254 18.7136 18.5 18.7136Z" fill="#946B28"/>
</svg>
