<svg width="22" height="22" viewBox="0 0 22 22" fill="none" xmlns="http://www.w3.org/2000/svg">
<path d="M19.2501 11.4584C19.2462 10.4437 18.9373 9.45354 18.3635 8.61659C17.7898 7.77965 16.9776 7.13454 16.0326 6.76506C16.0326 5.42792 15.5014 4.14555 14.5559 3.20006C13.6104 2.25456 12.328 1.72339 10.9909 1.72339C9.65376 1.72339 8.37139 2.25456 7.4259 3.20006C6.4804 4.14555 5.94922 5.42792 5.94922 6.76506C4.85574 7.19409 3.94639 7.99148 3.37817 9.01954C2.80995 10.0476 2.61854 11.2418 2.83698 12.396C3.05542 13.5501 3.67 14.5918 4.57461 15.3411C5.47923 16.0904 6.61708 16.5003 7.79173 16.5001H7.97506C7.74371 17.2979 7.35747 18.0423 6.83839 18.6909C6.73452 18.8258 6.67027 18.987 6.65285 19.1563C6.63543 19.3257 6.66552 19.4966 6.73975 19.6498C6.81399 19.803 6.92943 19.9325 7.07314 20.0238C7.21685 20.1151 7.38314 20.1646 7.55339 20.1667H14.4467C14.6202 20.1673 14.7903 20.1187 14.9372 20.0265C15.0841 19.9342 15.2018 19.8022 15.2767 19.6457C15.3516 19.4893 15.3805 19.3148 15.3602 19.1425C15.3398 18.9702 15.271 18.8073 15.1617 18.6726C14.6448 18.0295 14.2586 17.2914 14.0251 16.5001H14.2084C15.5448 16.4976 16.8257 15.9657 17.7707 15.0207C18.7157 14.0757 19.2476 12.7948 19.2501 11.4584ZM9.22173 18.3334C9.58648 17.5932 9.83682 16.802 9.96422 15.9867C10.3342 15.8155 10.682 15.6 11.0001 15.3451C11.3181 15.6 11.6659 15.8155 12.0359 15.9867C12.1633 16.802 12.4136 17.5932 12.7784 18.3334H9.22173ZM11.7151 13.4751L11.6417 13.4017L11.5684 13.3284H11.5042L11.3392 13.2459L11.1742 13.1909H10.8259L10.6609 13.2459C10.6048 13.2648 10.5522 13.2927 10.5051 13.3284H10.4317L10.3584 13.4017L10.2851 13.4751C9.96267 13.8737 9.54946 14.1892 9.08003 14.3952C8.61061 14.6013 8.09864 14.6918 7.58702 14.6593C7.0754 14.6268 6.57901 14.4722 6.13945 14.2083C5.69989 13.9445 5.32995 13.5792 5.06062 13.143C4.79129 12.7068 4.63041 12.2124 4.59146 11.7012C4.55251 11.1901 4.63662 10.677 4.83675 10.205C5.03688 9.73303 5.34719 9.31588 5.74171 8.9885C6.13622 8.66112 6.60344 8.43305 7.10423 8.32339C7.15521 8.30337 7.20429 8.27883 7.25089 8.25006C7.30755 8.22952 7.36268 8.20501 7.41589 8.17672C7.46237 8.14119 7.50535 8.10128 7.54422 8.05756C7.63614 7.98494 7.70338 7.88569 7.73672 7.77339C7.76599 7.72505 7.78764 7.67249 7.80089 7.61756C7.80967 7.55676 7.80967 7.49502 7.80089 7.43422C7.80532 7.38237 7.80532 7.33024 7.80089 7.27839C7.79057 7.14108 7.79057 7.00319 7.80089 6.86589C7.80089 6.01499 8.13891 5.19893 8.74059 4.59725C9.34227 3.99558 10.1583 3.65756 11.0092 3.65756C11.8601 3.65756 12.6762 3.99558 13.2779 4.59725C13.8795 5.19893 14.2176 6.01499 14.2176 6.86589C14.2279 7.00319 14.2279 7.14108 14.2176 7.27839C14.2136 7.3272 14.2136 7.37625 14.2176 7.42506C14.2079 7.48886 14.2079 7.55375 14.2176 7.61756C14.2308 7.67249 14.2525 7.72505 14.2817 7.77339C14.3151 7.88569 14.3823 7.98494 14.4742 8.05756C14.5131 8.10128 14.5561 8.14119 14.6026 8.17672C14.6558 8.20501 14.7109 8.22952 14.7676 8.25006C14.8145 8.27568 14.8636 8.29715 14.9142 8.31422C15.415 8.42388 15.8822 8.65196 16.2767 8.97933C16.6713 9.30671 16.9816 9.72386 17.1817 10.1958C17.3818 10.6678 17.4659 11.1809 17.427 11.6921C17.388 12.2032 17.2272 12.6976 16.9578 13.1338C16.6885 13.57 16.3186 13.9354 15.879 14.1992C15.4394 14.463 14.9431 14.6176 14.4314 14.6502C13.9198 14.6827 13.4078 14.5921 12.9384 14.3861C12.469 14.18 12.0558 13.8645 11.7334 13.4659L11.7151 13.4751Z" fill="#946B28"/>
</svg>
