<svg width="44" height="44" viewBox="0 0 44 44" fill="none" xmlns="http://www.w3.org/2000/svg">
<circle cx="22" cy="22" r="22" fill="url(#paint0_linear_1_878)"/>
<path d="M18.3456 24.0258C20.4611 24.0258 22.2828 24.3842 23.5977 25.2417C24.9595 26.1305 25.6912 27.5 25.6912 29.2875C25.6793 29.4683 25.5968 29.638 25.4603 29.762C25.3239 29.886 25.1438 29.955 24.9566 29.955C24.7694 29.955 24.5893 29.886 24.4528 29.762C24.3164 29.638 24.2339 29.4683 24.222 29.2875C24.222 27.9252 23.6961 27.0179 22.7779 26.4192C21.8112 25.7906 20.3289 25.4479 18.3456 25.4479C16.3623 25.4479 14.8785 25.7906 13.9133 26.4206C12.9951 27.0193 12.4691 27.9266 12.4691 29.289C12.4573 29.4698 12.3748 29.6394 12.2383 29.7634C12.1018 29.8874 11.9217 29.9564 11.7346 29.9564C11.5474 29.9564 11.3673 29.8874 11.2308 29.7634C11.0944 29.6394 11.0118 29.4698 11 29.289C11 27.5 11.7302 26.1305 13.092 25.2417C14.4069 24.3842 16.23 24.0258 18.3456 24.0258ZM25.6544 24.0258C27.7685 24.0258 29.5917 24.3842 30.9065 25.2417C32.2684 26.1305 33 27.5 33 29.289C33 29.4775 32.9226 29.6584 32.7849 29.7917C32.6471 29.9251 32.4603 30 32.2654 30C32.0706 30 31.8838 29.9251 31.746 29.7917C31.6083 29.6584 31.5309 29.4775 31.5309 29.289C31.5309 27.9266 31.0049 27.0193 30.0853 26.4206C29.3243 25.9243 28.2445 25.61 26.8503 25.4962C26.503 24.9471 26.0721 24.4519 25.5722 24.0272L25.6544 24.0258ZM18.3456 14C19.5527 14.0295 20.7002 14.5143 21.5433 15.3512C22.3863 16.1881 22.8581 17.3107 22.8581 18.4796C22.8581 19.6485 22.3863 20.7711 21.5433 21.608C20.7002 22.4449 19.5527 22.9298 18.3456 22.9592C17.1182 22.9592 15.9412 22.4873 15.0733 21.6472C14.2054 20.8071 13.7179 19.6677 13.7179 18.4796C13.7179 17.2916 14.2054 16.1522 15.0733 15.3121C15.9412 14.472 17.1182 14 18.3456 14ZM25.6544 14C26.8818 14 28.0588 14.472 28.9267 15.3121C29.7946 16.1522 30.2821 17.2916 30.2821 18.4796C30.2821 19.6677 29.7946 20.8071 28.9267 21.6472C28.0588 22.4873 26.8818 22.9592 25.6544 22.9592C24.8846 22.9592 24.1618 22.7743 23.5242 22.4529C23.8316 22.0787 24.0948 21.6723 24.3087 21.2413C24.7901 21.4618 25.3213 21.5608 25.8529 21.5292C26.3845 21.4977 26.8992 21.3365 27.3492 21.0607C27.7991 20.7849 28.1697 20.4035 28.4265 19.9518C28.6834 19.5002 28.818 18.993 28.818 18.4775C28.818 17.962 28.6834 17.4548 28.4265 17.0031C28.1697 16.5515 27.7991 16.1701 27.3492 15.8943C26.8992 15.6185 26.3845 15.4573 25.8529 15.4257C25.3213 15.3941 24.7901 15.4932 24.3087 15.7136C24.0941 15.2836 23.8305 14.8781 23.5227 14.5049C24.1797 14.1711 24.911 13.9978 25.653 14M18.3456 15.4221C17.5245 15.4464 16.7455 15.7791 16.1736 16.3499C15.6017 16.9206 15.2819 17.6845 15.2819 18.4796C15.2819 19.2747 15.6017 20.0386 16.1736 20.6094C16.7455 21.1801 17.5245 21.5129 18.3456 21.5371C19.1833 21.5371 19.9867 21.215 20.579 20.6416C21.1714 20.0682 21.5042 19.2905 21.5042 18.4796C21.5042 17.6687 21.1714 16.891 20.579 16.3176C19.9867 15.7442 19.1833 15.4221 18.3456 15.4221Z" fill="white"/>
<defs>
<linearGradient id="paint0_linear_1_878" x1="40.7" y1="37.4" x2="4.675" y2="7.15" gradientUnits="userSpaceOnUse">
<stop offset="0.9999" stop-color="#A26800"/>
</linearGradient>
</defs>
</svg>
