<svg width="31" height="31" viewBox="0 0 31 31" fill="none" xmlns="http://www.w3.org/2000/svg">
<path d="M10.9609 15.25C11.7505 15.25 12.3906 14.6099 12.3906 13.8203C12.3906 13.0307 11.7505 12.3906 10.9609 12.3906C10.1713 12.3906 9.53125 13.0307 9.53125 13.8203C9.53125 14.6099 10.1713 15.25 10.9609 15.25Z" fill="white"/>
<path d="M15.2531 22.8751C12.5474 22.8751 10.2718 21.116 9.55157 18.7153C9.53143 18.6438 9.52826 18.5687 9.5423 18.4958C9.55634 18.4229 9.58722 18.3543 9.63246 18.2954C9.67771 18.2366 9.73608 18.1891 9.80291 18.1568C9.86974 18.1246 9.9432 18.1083 10.0174 18.1094H20.4834C20.5576 18.1083 20.631 18.1246 20.6979 18.1568C20.7647 18.1891 20.8231 18.2366 20.8683 18.2954C20.9136 18.3543 20.9444 18.4229 20.9585 18.4958C20.9725 18.5687 20.9694 18.6438 20.9492 18.7153C20.235 21.116 17.9588 22.8751 15.2531 22.8751Z" fill="white"/>
<path d="M19.5392 15.25C20.3288 15.25 20.9689 14.6099 20.9689 13.8203C20.9689 13.0307 20.3288 12.3906 19.5392 12.3906C18.7496 12.3906 18.1095 13.0307 18.1095 13.8203C18.1095 14.6099 18.7496 15.25 19.5392 15.25Z" fill="white"/>
<path d="M15.2501 27.5954C22.0682 27.5954 27.5954 22.0682 27.5954 15.2501C27.5954 8.43196 22.0682 2.90479 15.2501 2.90479C8.43196 2.90479 2.90479 8.43196 2.90479 15.2501C2.90479 22.0682 8.43196 27.5954 15.2501 27.5954Z" stroke="white" stroke-width="2" stroke-miterlimit="10"/>
</svg>
