<svg width="38" height="38" viewBox="0 0 38 38" fill="none" xmlns="http://www.w3.org/2000/svg">
<circle cx="19" cy="19" r="19" fill="#F0ECE7"/>
<path d="M15.4168 21.5107C15.2636 21.3582 15.0691 21.2548 14.8579 21.2137C14.6466 21.1727 14.428 21.1957 14.2297 21.2798C14.0945 21.3292 13.9718 21.408 13.8701 21.5106C13.7685 21.6132 13.6905 21.7371 13.6415 21.8735C13.571 22.0407 13.5426 22.2229 13.5589 22.4039C13.5752 22.5848 13.6357 22.7589 13.7349 22.9105C13.8342 23.0621 13.9692 23.1865 14.1277 23.2725C14.2863 23.3586 14.4635 23.4036 14.6435 23.4036C14.8235 23.4036 15.0008 23.3586 15.1593 23.2725C15.3179 23.1865 15.4528 23.0621 15.5521 22.9105C15.6514 22.7589 15.7118 22.5848 15.7281 22.4039C15.7444 22.2229 15.716 22.0407 15.6455 21.8735C15.5894 21.7407 15.5122 21.6182 15.4168 21.5107ZM24.1296 21.5107C23.919 21.3145 23.6429 21.2056 23.3563 21.2056C23.0698 21.2056 22.7937 21.3145 22.5831 21.5107C22.4877 21.6182 22.4104 21.7407 22.3544 21.8735C22.2695 22.0734 22.2459 22.2944 22.2867 22.508C22.3275 22.7216 22.4307 22.9179 22.5831 23.0717C22.6896 23.168 22.811 23.246 22.9425 23.3026C23.0728 23.3608 23.2138 23.3908 23.3563 23.3908C23.4989 23.3908 23.6398 23.3608 23.7702 23.3026C23.9017 23.246 24.0231 23.168 24.1296 23.0717C24.282 22.9179 24.3852 22.7216 24.426 22.508C24.4668 22.2944 24.4432 22.0734 24.3583 21.8735C24.3022 21.7407 24.225 21.6182 24.1296 21.5107ZM26.9613 26.5731C27.7322 25.9527 28.3207 25.1316 28.6631 24.1984C29.0055 23.2651 29.0889 22.2552 28.9042 21.2776L27.2706 12.483C27.0364 11.2231 26.3733 10.0854 25.396 9.26681C24.4187 8.44817 23.1887 8.00007 21.9187 8H16.08C14.8102 8.00032 13.5805 8.44855 12.6034 9.26716C11.6264 10.0858 10.9634 11.2233 10.7293 12.483L9.09562 21.2776C8.91111 22.2553 8.99466 23.2653 9.33728 24.1986C9.67989 25.1318 10.2685 25.9529 11.0397 26.5731L9.51711 28.1099C9.41309 28.2114 9.33012 28.3327 9.27304 28.4668C9.21596 28.6009 9.18592 28.7452 9.18466 28.8911C9.1834 29.0371 9.21096 29.1818 9.26572 29.3169C9.32048 29.4521 9.40135 29.5748 9.50361 29.678C9.60587 29.7812 9.72747 29.8629 9.86131 29.9181C9.99516 29.9734 10.1386 30.0012 10.2832 30C10.4278 29.9987 10.5707 29.9684 10.7036 29.9107C10.8365 29.8531 10.9566 29.7694 11.0571 29.6644L13.0937 27.6087C13.535 27.7253 13.9891 27.7855 14.4453 27.7878H23.5524C24.0092 27.786 24.4641 27.7262 24.9061 27.6097L26.9417 29.6644C27.1471 29.8646 27.4222 29.9754 27.7077 29.9729C27.9933 29.9704 28.2665 29.8548 28.4684 29.651C28.6703 29.4472 28.7849 29.1714 28.7873 28.8832C28.7898 28.595 28.68 28.3173 28.4817 28.1099L26.9613 26.5731ZM12.8683 12.8887C13.0088 12.1324 13.4069 11.4495 13.9936 10.9583C14.5804 10.467 15.3188 10.1983 16.0811 10.1986H21.9209C22.6828 10.1988 23.4208 10.4677 24.0071 10.959C24.5934 11.4502 24.9911 12.1328 25.1316 12.8887L25.5095 14.9224C24.6964 15.8566 23.6953 16.6049 22.573 17.1176C21.4506 17.6302 20.2329 17.8954 19.001 17.8954C17.7691 17.8954 16.5514 17.6302 15.4291 17.1176C14.3068 16.6049 13.3056 15.8566 12.4925 14.9224L12.8683 12.8887ZM26.0649 24.3975C25.7591 24.7706 25.3754 25.0709 24.9413 25.2769C24.5071 25.4829 24.0332 25.5896 23.5535 25.5892H14.4464C13.9663 25.5891 13.4922 25.4822 13.0577 25.2762C12.6233 25.0702 12.2391 24.77 11.9326 24.3971C11.626 24.0242 11.4047 23.5877 11.2842 23.1187C11.1638 22.6496 11.1472 22.1595 11.2357 21.6833L12.0101 17.5147C13.9656 19.1797 16.4416 20.093 18.9999 20.093C21.5583 20.093 24.0342 19.1797 25.9898 17.5147L26.7631 21.6833C26.8523 22.1596 26.8362 22.6499 26.7157 23.1192C26.5951 23.5884 26.3733 24.025 26.066 24.3975" fill="#946B28"/>
</svg>
