<svg version="1.1" id="Layer_1" xmlns="http://www.w3.org/2000/svg" xmlns:xlink="http://www.w3.org/1999/xlink" x="0px" y="0px"
	 width="100%" viewBox="0 0 225 225" enable-background="new 0 0 225 225" xml:space="preserve">
<path fill="#010101" opacity="1.000000" stroke="none" 
	d="
M125.000000,226.000000 
	C83.333336,226.000000 42.166672,226.000000 1.000005,226.000000 
	C1.000004,151.000000 1.000004,76.000015 1.000002,1.000016 
	C75.999992,1.000010 150.999985,1.000010 225.999969,1.000005 
	C225.999985,75.999985 225.999985,150.999969 226.000000,225.999969 
	C192.500000,226.000000 159.000000,226.000000 125.000000,226.000000 
M151.057297,180.315948 
	C146.181900,186.860992 139.247452,188.406250 133.156418,184.174713 
	C133.901978,183.486618 134.687210,182.874420 135.338242,182.142807 
	C139.544769,177.415695 140.210632,171.633133 137.180634,166.489212 
	C134.102753,161.263992 128.543930,158.788269 122.726707,160.051941 
	C117.180664,161.256729 112.621262,166.167847 112.329552,172.032043 
	C111.979294,179.072922 115.278046,184.543121 120.904228,188.571472 
	C140.770493,202.795746 169.971848,191.374771 174.764984,167.454712 
	C175.512375,163.724792 175.818634,159.848770 175.831436,156.038635 
	C175.921585,129.209366 175.858093,102.379623 175.891891,75.550095 
	C175.911682,59.831871 176.986252,58.607311 192.160233,56.435768 
	C192.160233,54.938736 192.160233,53.426807 192.160233,51.957191 
	C162.978760,51.957191 134.203659,51.957191 105.045914,51.957191 
	C105.045914,52.978863 104.977158,53.774555 105.065407,54.552437 
	C105.152229,55.317684 105.398315,56.064865 105.593018,56.899261 
	C106.674934,56.899261 107.507652,56.858955 108.335510,56.905342 
	C119.823181,57.549046 121.871445,60.834026 117.342918,71.390343 
	C113.545509,80.242355 109.733101,89.088005 105.901794,97.925400 
	C101.952812,107.034271 97.972939,116.129753 93.624229,126.108467 
	C89.963165,117.650909 86.678085,110.101486 83.425270,102.538185 
	C78.572327,91.254295 73.588387,80.023247 68.956848,68.648911 
	C65.919296,61.189175 67.897400,58.166229 75.848015,57.151966 
	C77.818512,56.900589 79.817009,56.868744 82.082497,56.717281 
	C82.082497,55.103279 82.082497,53.541691 82.082497,52.088646 
	C63.040287,52.088646 44.295143,52.088646 25.237753,52.088646 
	C25.400799,53.889294 25.528036,55.294483 25.686275,57.042042 
	C37.113384,55.694859 42.456177,62.011116 46.444080,71.413849 
	C58.309208,99.389626 70.664665,127.157768 82.917122,154.968018 
	C83.560890,156.429199 85.023132,157.529800 86.104347,158.798264 
	C87.337212,157.477142 89.047867,156.365295 89.731865,154.803741 
	C101.521736,127.887657 113.138588,100.895790 124.925819,73.978531 
	C126.713669,69.895798 128.705582,65.745972 131.418884,62.262608 
	C135.235718,57.362503 140.701065,56.178291 146.732941,57.721859 
	C152.432327,59.180344 153.204529,63.814568 153.761993,68.560402 
	C153.975204,70.375725 154.047989,72.216927 154.048935,74.046402 
	C154.064713,104.708565 154.167480,135.371552 153.939606,166.032028 
	C153.905884,170.567184 152.286575,175.090576 151.057297,180.315948 
z"/>
<path fill="#FAFAFA" opacity="1.000000" stroke="none" 
	d="
M151.229080,179.967682 
	C152.286575,175.090576 153.905884,170.567184 153.939606,166.032028 
	C154.167480,135.371552 154.064713,104.708565 154.048935,74.046402 
	C154.047989,72.216927 153.975204,70.375725 153.761993,68.560402 
	C153.204529,63.814568 152.432327,59.180344 146.732941,57.721859 
	C140.701065,56.178291 135.235718,57.362503 131.418884,62.262608 
	C128.705582,65.745972 126.713669,69.895798 124.925819,73.978531 
	C113.138588,100.895790 101.521736,127.887657 89.731865,154.803741 
	C89.047867,156.365295 87.337212,157.477142 86.104340,158.798264 
	C85.023132,157.529800 83.560890,156.429199 82.917122,154.968018 
	C70.664665,127.157768 58.309208,99.389626 46.444080,71.413849 
	C42.456177,62.011116 37.113384,55.694859 25.686275,57.042042 
	C25.528036,55.294483 25.400799,53.889294 25.237753,52.088646 
	C44.295143,52.088646 63.040287,52.088646 82.082497,52.088646 
	C82.082497,53.541691 82.082497,55.103279 82.082497,56.717281 
	C79.817009,56.868744 77.818512,56.900589 75.848015,57.151966 
	C67.897400,58.166229 65.919296,61.189175 68.956848,68.648911 
	C73.588387,80.023247 78.572327,91.254295 83.425270,102.538185 
	C86.678085,110.101486 89.963165,117.650909 93.624229,126.108467 
	C97.972939,116.129753 101.952812,107.034271 105.901794,97.925400 
	C109.733101,89.088005 113.545509,80.242355 117.342918,71.390343 
	C121.871445,60.834026 119.823181,57.549046 108.335510,56.905342 
	C107.507652,56.858955 106.674934,56.899261 105.593018,56.899261 
	C105.398315,56.064865 105.152229,55.317684 105.065407,54.552437 
	C104.977158,53.774555 105.045914,52.978863 105.045914,51.957191 
	C134.203659,51.957191 162.978760,51.957191 192.160233,51.957191 
	C192.160233,53.426807 192.160233,54.938736 192.160233,56.435768 
	C176.986252,58.607311 175.911682,59.831871 175.891891,75.550095 
	C175.858093,102.379623 175.921585,129.209366 175.831436,156.038635 
	C175.818634,159.848770 175.512375,163.724792 174.764984,167.454712 
	C169.971848,191.374771 140.770493,202.795746 120.904228,188.571472 
	C115.278046,184.543121 111.979294,179.072922 112.329552,172.032043 
	C112.621262,166.167847 117.180664,161.256729 122.726707,160.051941 
	C128.543930,158.788269 134.102753,161.263992 137.180634,166.489212 
	C140.210632,171.633133 139.544769,177.415695 135.338242,182.142807 
	C134.687210,182.874420 133.901978,183.486618 133.156418,184.174713 
	C139.247452,188.406250 146.181900,186.860992 151.229080,179.967682 
z"/>
</svg>