<svg width="48" height="48" viewBox="0 0 48 48" fill="none" xmlns="http://www.w3.org/2000/svg">
<circle cx="24" cy="24" r="24" fill="white"/>
<path fill-rule="evenodd" clip-rule="evenodd" d="M16.5465 14.8576C17.7946 13.5495 19.8498 13.7819 20.8948 15.2544L22.1891 17.0749C23.0403 18.2727 22.9644 19.9462 21.9542 21.0045L21.7101 21.2618C21.6825 21.3698 21.6796 21.4832 21.7019 21.5926C21.7665 22.0337 22.1162 22.9677 23.5807 24.5028C25.0452 26.0379 25.9375 26.4055 26.362 26.4747C26.469 26.4974 26.5795 26.494 26.6851 26.465L27.1035 26.026C28.0019 25.0855 29.3802 24.9093 30.4919 25.5461L32.4507 26.6704C34.1296 27.6303 34.5531 30.0346 33.1789 31.4757L31.7216 33.0021C31.2621 33.4832 30.6447 33.8843 29.892 33.9589C28.0357 34.1416 23.711 33.9081 19.1647 29.1438C14.922 24.6963 14.1077 20.8175 14.0041 18.9062C13.9529 17.9397 14.3856 17.1224 14.9374 16.5451L16.5465 14.8576ZM19.6642 16.2262C19.1442 15.4943 18.1761 15.436 17.6305 16.0079L16.0204 17.6943C15.6819 18.0489 15.5199 18.4402 15.5404 18.8143C15.6225 20.3332 16.2788 23.8326 20.2497 27.9947C24.4155 32.36 28.2624 32.4908 29.7494 32.3438C30.053 32.3146 30.3545 32.1481 30.6365 31.853L32.0928 30.3254C32.6856 29.7049 32.5553 28.5741 31.7164 28.0941L29.7576 26.9709C29.2161 26.6617 28.5824 26.7633 28.1885 27.1763L27.7219 27.666L27.1784 27.0909C27.7219 27.666 27.7199 27.6671 27.7199 27.6671L27.7188 27.6693L27.7158 27.6725L27.7086 27.679L27.6932 27.6941C27.6499 27.7365 27.6033 27.7748 27.5537 27.8087C27.4717 27.866 27.363 27.9298 27.2266 27.9828C26.9497 28.092 26.5825 28.1503 26.1292 28.0768C25.2401 27.933 24.0617 27.2941 22.4957 25.6531C20.9307 24.012 20.3195 22.7775 20.1821 21.8413C20.1113 21.3634 20.1677 20.9764 20.2723 20.6845C20.3299 20.5203 20.4123 20.3669 20.5164 20.2305L20.5492 20.1926L20.5636 20.1764L20.5697 20.1699L20.5728 20.1667L20.5748 20.1645L20.8702 19.8553C21.3091 19.3937 21.3707 18.6294 20.9574 18.0467L19.6642 16.2262Z" fill="#946B28"/>
</svg>
