<svg width="48" height="48" viewBox="0 0 48 48" fill="none" xmlns="http://www.w3.org/2000/svg">
<circle cx="24" cy="24" r="24" fill="white"/>
<path d="M17 17H30C30.7956 17 31.5587 17.3161 32.1213 17.8787C32.6839 18.4413 33 19.2044 33 20V29C33 29.7956 32.6839 30.5587 32.1213 31.1213C31.5587 31.6839 30.7956 32 30 32H17C16.2044 32 15.4413 31.6839 14.8787 31.1213C14.3161 30.5587 14 29.7956 14 29V20C14 19.2044 14.3161 18.4413 14.8787 17.8787C15.4413 17.3161 16.2044 17 17 17ZM17 18C16.5 18 16.06 18.17 15.72 18.47L23.5 23.5L31.28 18.47C30.94 18.17 30.5 18 30 18H17ZM23.5 24.71L15.13 19.28C15.05 19.5 15 19.75 15 20V29C15 29.5304 15.2107 30.0391 15.5858 30.4142C15.9609 30.7893 16.4696 31 17 31H30C30.5304 31 31.0391 30.7893 31.4142 30.4142C31.7893 30.0391 32 29.5304 32 29V20C32 19.75 31.95 19.5 31.87 19.28L23.5 24.71Z" fill="#946B28"/>
</svg>
