<svg width="47" height="47" viewBox="0 0 47 47" fill="none" xmlns="http://www.w3.org/2000/svg">
<path d="M30.55 0C31.7965 0 32.992 0.475813 33.8734 1.32277C34.7548 2.16972 35.25 3.31843 35.25 4.5162V13.5486H39.95C41.1965 13.5486 42.392 14.0244 43.2734 14.8714C44.1548 15.7183 44.65 16.867 44.65 18.0648V36.1296C45.2733 36.1296 45.871 36.3675 46.3117 36.791C46.7524 37.2145 47 37.7889 47 38.3877C47 38.9866 46.7524 39.561 46.3117 39.9845C45.871 40.4079 45.2733 40.6458 44.65 40.6458H2.35C1.72674 40.6458 1.12901 40.4079 0.688299 39.9845C0.247588 39.561 0 38.9866 0 38.3877C0 37.7889 0.247588 37.2145 0.688299 36.791C1.12901 36.3675 1.72674 36.1296 2.35 36.1296V13.5486C2.35 12.3508 2.84518 11.2021 3.7266 10.3552C4.60802 9.50822 5.80348 9.03241 7.05 9.03241H11.75V4.5162C11.75 3.31843 12.2452 2.16972 13.1266 1.32277C14.008 0.475813 15.2035 0 16.45 0H30.55ZM11.75 13.5486H7.05V36.1296H11.75V13.5486ZM39.95 18.0648H35.25V36.1296H39.95V18.0648ZM30.55 4.5162H16.45V36.1296H30.55V4.5162ZM25.85 27.0972V31.6134H21.15V27.0972H25.85ZM25.85 18.0648V22.581H21.15V18.0648H25.85ZM25.85 9.03241V13.5486H21.15V9.03241H25.85Z" fill="#B63B7C"/>
</svg>
