<svg width="49" height="48" viewBox="0 0 49 48" fill="none" xmlns="http://www.w3.org/2000/svg">
<path d="M44.34 13.24C44.1371 12.7513 43.7487 12.3629 43.26 12.16C43.0196 12.0575 42.7614 12.0032 42.5 12H32.5C31.9696 12 31.4609 12.2107 31.0858 12.5858C30.7107 12.9609 30.5 13.4696 30.5 14C30.5 14.5304 30.7107 15.0391 31.0858 15.4142C31.4609 15.7893 31.9696 16 32.5 16H37.68L26.5 27.18L19.92 20.58C19.7341 20.3925 19.5129 20.2438 19.2692 20.1422C19.0254 20.0407 18.764 19.9884 18.5 19.9884C18.236 19.9884 17.9746 20.0407 17.7308 20.1422C17.4871 20.2438 17.2659 20.3925 17.08 20.58L5.08 32.58C4.89254 32.7659 4.74375 32.9871 4.64222 33.2308C4.54068 33.4746 4.4884 33.736 4.4884 34C4.4884 34.264 4.54068 34.5254 4.64222 34.7692C4.74375 35.0129 4.89254 35.2341 5.08 35.42C5.26593 35.6075 5.48713 35.7562 5.73085 35.8578C5.97457 35.9593 6.23598 36.0116 6.5 36.0116C6.76402 36.0116 7.02543 35.9593 7.26915 35.8578C7.51287 35.7562 7.73407 35.6075 7.92 35.42L18.5 24.82L25.08 31.42C25.2659 31.6075 25.4871 31.7562 25.7308 31.8578C25.9746 31.9593 26.236 32.0116 26.5 32.0116C26.764 32.0116 27.0254 31.9593 27.2692 31.8578C27.5129 31.7562 27.7341 31.6075 27.92 31.42L40.5 18.82V24C40.5 24.5304 40.7107 25.0391 41.0858 25.4142C41.4609 25.7893 41.9696 26 42.5 26C43.0304 26 43.5391 25.7893 43.9142 25.4142C44.2893 25.0391 44.5 24.5304 44.5 24V14C44.4968 13.7386 44.4425 13.4804 44.34 13.24Z" fill="#B63B7C"/>
</svg>
