<svg width="49" height="48" viewBox="0 0 49 48" fill="none" xmlns="http://www.w3.org/2000/svg">
<g clip-path="url(#clip0_1_1031)">
<path d="M16.5 28.48C21.108 28.48 25.076 29.2864 27.94 31.216C30.9064 33.216 32.5 36.2976 32.5 40.32C32.4743 40.7268 32.2945 41.1086 31.9973 41.3876C31.7 41.6666 31.3077 41.8219 30.9 41.8219C30.4923 41.8219 30.1 41.6666 29.8027 41.3876C29.5055 41.1086 29.3257 40.7268 29.3 40.32C29.3 37.2544 28.1544 35.2128 26.1544 33.8656C24.0488 32.4512 20.82 31.68 16.5 31.68C12.18 31.68 8.948 32.4512 6.8456 33.8688C4.8456 35.216 3.7 37.2576 3.7 40.3232C3.67426 40.73 3.49448 41.1118 3.19725 41.3908C2.90003 41.6698 2.50767 41.8251 2.1 41.8251C1.69233 41.8251 1.29997 41.6698 1.00275 41.3908C0.705517 41.1118 0.525745 40.73 0.5 40.3232C0.5 36.2976 2.0904 33.216 5.0568 31.216C7.9208 29.2864 11.892 28.48 16.5 28.48ZM32.42 28.48C37.0248 28.48 40.996 29.2864 43.86 31.216C46.8264 33.216 48.42 36.2976 48.42 40.3232C48.42 40.7475 48.2514 41.1545 47.9514 41.4545C47.6513 41.7546 47.2443 41.9232 46.82 41.9232C46.3957 41.9232 45.9887 41.7546 45.6886 41.4545C45.3886 41.1545 45.22 40.7475 45.22 40.3232C45.22 37.2576 44.0744 35.216 42.0712 33.8688C40.4136 32.752 38.0616 32.0448 35.0248 31.7888C34.2684 30.5531 33.3298 29.4387 32.2408 28.4832L32.42 28.48ZM16.5 5.91997C19.1294 5.98623 21.6288 7.07731 23.4651 8.96045C25.3014 10.8436 26.3292 13.3697 26.3292 16C26.3292 18.6302 25.3014 21.1563 23.4651 23.0395C21.6288 24.9226 19.1294 26.0137 16.5 26.08C13.8266 26.08 11.2627 25.018 9.37236 23.1276C7.482 21.2372 6.42 18.6734 6.42 16C6.42 13.3266 7.482 10.7627 9.37236 8.87233C11.2627 6.98196 13.8266 5.91997 16.5 5.91997ZM32.42 5.91997C35.0934 5.91997 37.6573 6.98196 39.5476 8.87233C41.438 10.7627 42.5 13.3266 42.5 16C42.5 18.6734 41.438 21.2372 39.5476 23.1276C37.6573 25.018 35.0934 26.08 32.42 26.08C30.7432 26.08 29.1688 25.664 27.78 24.9408C28.4497 24.0987 29.0228 23.1842 29.4888 22.2144C30.5374 22.7104 31.6945 22.9333 32.8524 22.8622C34.0102 22.7912 35.1313 22.4285 36.1114 21.8079C37.0915 21.1873 37.8988 20.329 38.4582 19.3127C39.0176 18.2964 39.3109 17.1552 39.3109 15.9952C39.3109 14.8351 39.0176 13.6939 38.4582 12.6776C37.8988 11.6613 37.0915 10.803 36.1114 10.1824C35.1313 9.56184 34.0102 9.19915 32.8524 9.12809C31.6945 9.05703 30.5374 9.27989 29.4888 9.77597C29.0214 8.80826 28.4472 7.89591 27.7768 7.05597C29.2078 6.30499 30.8007 5.91502 32.4168 5.91997M16.5 9.11997C14.7116 9.17452 13.0148 9.92329 11.7691 11.2076C10.5233 12.4919 9.82666 14.2108 9.82666 16C9.82666 17.7892 10.5233 19.5081 11.7691 20.7924C13.0148 22.0767 14.7116 22.8254 16.5 22.88C18.3247 22.88 20.0746 22.1551 21.3649 20.8649C22.6551 19.5746 23.38 17.8247 23.38 16C23.38 14.1753 22.6551 12.4253 21.3649 11.1351C20.0746 9.84482 18.3247 9.11997 16.5 9.11997Z" fill="#B63B7C"/>
</g>
<defs>
<clipPath id="clip0_1_1031">
<rect width="48" height="48" fill="white" transform="translate(0.5)"/>
</clipPath>
</defs>
</svg>
